# xmcd
#
# Track frame offsets:
#	150
#	33172
#	56397
#	93348
#	124264
#	144984
#	164442
#	213894
#
# Disc length: 3192 seconds
#
# Revision: 0
# Processed by: cddbd v1.4PL0 Copyright (c) Steve Scherf et al.
# Submitted via: dBpowerAMP V4.0
#
DISCID=640c7608
DTITLE=India - The inner spirit of india
DYEAR=1900
DGENRE=
TTITLE0=Rag pilu
TTITLE1=Sarasasamadana
TTITLE2=Ohun rag khammaj
TTITLE3=Sultan bhai
TTITLE4=Krirt chincadirchara
TTITLE5=Violin improvision Tanam raga aberi
TTITLE6=Misra ohun in oadra tala
TTITLE7=Precussion improvision
EXTD=
EXTT0=
EXTT1=
EXTT2=
EXTT3=
EXTT4=
EXTT5=
EXTT6=
EXTT7=
PLAYORDER=
